ffmpeg started on 2016-12-07 at 12:33:21
Report written to "Output/x264/results/ffmpeg/crowd_run_2160p50slow8000k.log"
Command line:
Tools/ffmpeg/ffmpeg -benchmark -y -i Input/y4m/crowd_run_2160p50.y4m -c:v libx264 -preset slow -b:v 8000k -an Output/x264/encoded/crowd_run_2160p50slow8000k.mkv
ffmpeg version N-82227-gdb23fde Copyright (c) 2000-2016 the FFmpeg developers
  built with gcc 5.4.0 (Ubuntu 5.4.0-6ubuntu1~16.04.2) 20160609
  configuration: --prefix=/home/jaroslav/ffmpeg_build --pkg-config-flags=--static --extra-cflags=-I/home/jaroslav/ffmpeg_build/include --extra-ldflags=-L/home/jaroslav/ffmpeg_build/lib --bindir=/home/jaroslav/bin --enable-gpl --enable-libass --enable-libfdk-aac --enable-libfreetype --enable-libmp3lame --enable-libopus --enable-libtheora --enable-libvorbis --enable-libvpx --enable-libx264 --enable-libx265 --enable-nvenc --enable-libmfx --enable-libxvid --enable-libgsm --enable-libopencore-amrnb --enable-version3 --enable-nonfree
  libavutil      55. 35.100 / 55. 35.100
  libavcodec     57. 66.101 / 57. 66.101
  libavformat    57. 57.100 / 57. 57.100
  libavdevice    57.  2.100 / 57.  2.100
  libavfilter     6. 66.100 /  6. 66.100
  libswscale      4.  3.100 /  4.  3.100
  libswresample   2.  4.100 /  2.  4.100
  libpostproc    54.  2.100 / 54.  2.100
Input #0, yuv4mpegpipe, from 'Input/y4m/crowd_run_2160p50.y4m':
  Duration: 00:00:10.00, start: 0.000000, bitrate: 4976642 kb/s
    Stream #0:0: Video: rawvideo (I420 / 0x30323449), yuv420p(progressive), 3840x2160, SAR 1:1 DAR 16:9, 50 fps, 50 tbr, 50 tbn, 50 tbc
[libx264 @ 0x3ed51c0] using SAR=1/1
[libx264 @ 0x3ed51c0] using cpu capabilities: MMX2 SSE2Fast SSSE3 SSE4.2 AVX FMA3 AVX2 LZCNT BMI2
[libx264 @ 0x3ed51c0] profile High, level 5.2
[libx264 @ 0x3ed51c0] 264 - core 148 - H.264/MPEG-4 AVC codec - Copyleft 2003-2016 - http://www.videolan.org/x264.html - options: cabac=1 ref=5 deblock=1:0:0 analyse=0x3:0x113 me=hex subme=8 psy=1 psy_rd=1.00:0.00 mixed_ref=1 me_range=16 chroma_me=1 trellis=2 8x8dct=1 cqm=0 deadzone=21,11 fast_pskip=1 chroma_qp_offset=-2 threads=6 lookahead_threads=1 sliced_threads=0 nr=0 decimate=1 interlaced=0 bluray_compat=0 constrained_intra=0 bframes=3 b_pyramid=2 b_adapt=1 b_bias=0 direct=3 weightb=1 open_gop=0 weightp=2 keyint=250 keyint_min=25 scenecut=40 intra_refresh=0 rc_lookahead=50 rc=abr mbtree=1 bitrate=8000 ratetol=1.0 qcomp=0.60 qpmin=0 qpmax=69 qpstep=4 ip_ratio=1.40 aq=1:1.00
Output #0, matroska, to 'Output/x264/encoded/crowd_run_2160p50slow8000k.mkv':
  Metadata:
    encoder         : Lavf57.57.100
    Stream #0:0: Video: h264 (libx264) (H264 / 0x34363248), yuv420p, 3840x2160 [SAR 1:1 DAR 16:9], q=-1--1, 8000 kb/s, 50 fps, 1k tbn, 50 tbc
    Metadata:
      encoder         : Lavc57.66.101 libx264
    Side data:
      cpb: bitrate max/min/avg: 0/0/8000000 buffer size: 0 vbv_delay: -1
Stream mapping:
  Stream #0:0 -> #0:0 (rawvideo (native) -> h264 (libx264))
Press [q] to stop, [?] for help
frame=   19 fps=0.0 q=0.0 size=       0kB time=00:00:00.00 bitrate=N/A speed=   0x    frame=   36 fps= 35 q=0.0 size=       0kB time=00:00:00.00 bitrate=N/A speed=   0x    frame=   48 fps= 31 q=0.0 size=       0kB time=00:00:00.00 bitrate=N/A speed=   0x    frame=   57 fps= 13 q=0.0 size=       0kB time=00:00:00.00 bitrate=N/A speed=   0x    frame=   62 fps= 11 q=37.0 size=       1kB time=-00:00:00.01 bitrate=N/A speed=N/A    frame=   64 fps= 11 q=37.0 size=       1kB time=00:00:00.02 bitrate= 279.6kbits/s speed=0.00349x    frame=   69 fps= 10 q=53.0 size=       1kB time=00:00:00.12 bitrate=  48.5kbits/s speed=0.0183x    frame=   72 fps= 10 q=51.0 size=       1kB time=00:00:00.18 bitrate=  32.4kbits/s speed=0.0252x    frame=   78 fps= 10 q=51.0 size=       1kB time=00:00:00.30 bitrate=  19.5kbits/s speed=0.039x    frame=   83 fps=9.9 q=51.0 size=       1kB time=00:00:00.40 bitrate=  14.6kbits/s speed=0.0478x    frame=   89 fps= 10 q=50.0 size=       1kB time=00:00:00.52 bitrate=  11.3kbits/s speed=0.0586x    frame=   95 fps=9.9 q=50.0 size=       1kB time=00:00:00.64 bitrate=   9.2kbits/s speed=0.0665x    frame=  100 fps=9.8 q=50.0 size=       1kB time=00:00:00.74 bitrate=   7.9kbits/s speed=0.0728x    frame=  107 fps=9.8 q=50.0 size=       1kB time=00:00:00.88 bitrate=   6.7kbits/s speed=0.0805x    frame=  114 fps=9.9 q=49.0 size=       1kB time=00:00:01.02 bitrate=   5.8kbits/s speed=0.0886x    frame=  119 fps=9.8 q=49.0 size=       1kB time=00:00:01.12 bitrate=   5.2kbits/s speed=0.0924x    frame=  123 fps=9.7 q=49.0 size=       1kB time=00:00:01.20 bitrate=   4.9kbits/s speed=0.0951x    frame=  130 fps=9.8 q=49.0 size=       1kB time=00:00:01.34 bitrate=   4.4kbits/s speed=0.101x    frame=  134 fps=9.8 q=49.0 size=       1kB time=00:00:01.42 bitrate=   4.1kbits/s speed=0.103x    frame=  139 fps=9.7 q=49.0 size=       1kB time=00:00:01.52 bitrate=   3.9kbits/s speed=0.106x    frame=  145 fps=9.7 q=48.0 size=       1kB time=00:00:01.64 bitrate=   3.6kbits/s speed=0.11x    frame=  150 fps=9.7 q=48.0 size=       1kB time=00:00:01.74 bitrate=   3.4kbits/s speed=0.113x    frame=  155 fps=9.6 q=48.0 size=       1kB time=00:00:01.84 bitrate=   3.2kbits/s speed=0.114x    frame=  160 fps=9.6 q=48.0 size=       1kB time=00:00:01.94 bitrate=   3.0kbits/s speed=0.116x    frame=  165 fps=9.6 q=48.0 size=       1kB time=00:00:02.04 bitrate=   2.9kbits/s speed=0.118x    frame=  167 fps=9.4 q=48.0 size=       1kB time=00:00:02.08 bitrate=   2.8kbits/s speed=0.117x    frame=  173 fps=9.5 q=48.0 size=       1kB time=00:00:02.20 bitrate=   2.7kbits/s speed=0.12x    frame=  177 fps=9.4 q=48.0 size=       1kB time=00:00:02.28 bitrate=   2.6kbits/s speed=0.121x    frame=  183 fps=9.3 q=48.0 size=       1kB time=00:00:02.40 bitrate=   2.4kbits/s speed=0.123x    frame=  189 fps=9.4 q=48.0 size=       1kB time=00:00:02.52 bitrate=   2.3kbits/s speed=0.125x    frame=  194 fps=9.4 q=48.0 size=       1kB time=00:00:02.62 bitrate=   2.2kbits/s speed=0.127x    frame=  199 fps=9.3 q=48.0 size=       1kB time=00:00:02.72 bitrate=   2.2kbits/s speed=0.127x    frame=  205 fps=9.3 q=48.0 size=       1kB time=00:00:02.84 bitrate=   2.1kbits/s speed=0.129x    frame=  208 fps=9.2 q=48.0 size=       1kB time=00:00:02.90 bitrate=   2.0kbits/s speed=0.128x    frame=  215 fps=9.2 q=48.0 size=       1kB time=00:00:03.04 bitrate=   1.9kbits/s speed=0.13x    frame=  222 fps=9.3 q=47.0 size=       1kB time=00:00:03.18 bitrate=   1.8kbits/s speed=0.133x    frame=  227 fps=9.2 q=47.0 size=       1kB time=00:00:03.28 bitrate=   1.8kbits/s speed=0.132x    frame=  232 fps=9.2 q=47.0 size=       1kB time=00:00:03.38 bitrate=   1.7kbits/s speed=0.134x    frame=  236 fps=9.2 q=47.0 size=       1kB time=00:00:03.46 bitrate=   1.7kbits/s speed=0.134x    frame=  243 fps=9.1 q=47.0 size=       1kB time=00:00:03.60 bitrate=   1.6kbits/s speed=0.135x    frame=  249 fps=9.2 q=47.0 size=       1kB time=00:00:03.72 bitrate=   1.6kbits/s speed=0.137x    frame=  252 fps=9.1 q=47.0 size=       1kB time=00:00:03.78 bitrate=   1.6kbits/s speed=0.136x    frame=  259 fps=9.1 q=47.0 size=       1kB time=00:00:03.92 bitrate=   1.5kbits/s speed=0.137x    frame=  267 fps=9.0 q=47.0 size=       1kB time=00:00:04.08 bitrate=   1.4kbits/s speed=0.138x    frame=  273 fps=9.1 q=47.0 size=       1kB time=00:00:04.20 bitrate=   1.4kbits/s speed=0.14x    frame=  276 fps=9.0 q=47.0 size=       1kB time=00:00:04.26 bitrate=   1.4kbits/s speed=0.139x    frame=  283 fps=9.0 q=47.0 size=       1kB time=00:00:04.40 bitrate=   1.3kbits/s speed=0.14x    frame=  287 fps=9.0 q=47.0 size=       1kB time=00:00:04.48 bitrate=   1.3kbits/s speed=0.14x    frame=  294 fps=9.0 q=47.0 size=       1kB time=00:00:04.62 bitrate=   1.3kbits/s speed=0.142x    frame=  296 fps=9.0 q=47.0 size=       1kB time=00:00:04.66 bitrate=   1.3kbits/s speed=0.141x    frame=  303 fps=8.9 q=47.0 size=       1kB time=00:00:04.80 bitrate=   1.2kbits/s speed=0.142x    frame=  306 fps=8.7 q=44.0 size=       1kB time=00:00:04.86 bitrate=   1.2kbits/s speed=0.138x    frame=  313 fps=8.8 q=47.0 size=    5019kB time=00:00:05.00 bitrate=8222.1kbits/s speed=0.14x    frame=  319 fps=8.8 q=47.0 size=    5019kB time=00:00:05.12 bitrate=8029.4kbits/s speed=0.141x    frame=  322 fps=8.7 q=47.0 size=    5019kB time=00:00:05.18 bitrate=7936.4kbits/s speed=0.141x    frame=  327 fps=8.8 q=47.0 size=    5019kB time=00:00:05.28 bitrate=7786.1kbits/s speed=0.141x    frame=  333 fps=8.7 q=47.0 size=    5019kB time=00:00:05.40 bitrate=7613.2kbits/s speed=0.142x    frame=  339 fps=8.8 q=47.0 size=    5019kB time=00:00:05.52 bitrate=7447.7kbits/s speed=0.143x    frame=  343 fps=8.8 q=47.0 size=    5019kB time=00:00:05.60 bitrate=7341.3kbits/s speed=0.143x    frame=  348 fps=8.8 q=47.0 size=    5019kB time=00:00:05.70 bitrate=7212.5kbits/s speed=0.144x    frame=  353 fps=8.7 q=47.0 size=    5019kB time=00:00:05.80 bitrate=7088.2kbits/s speed=0.143x    frame=  357 fps=8.7 q=47.0 size=    5019kB time=00:00:05.88 bitrate=6991.8kbits/s speed=0.143x    frame=  362 fps=8.7 q=47.0 size=    5019kB time=00:00:05.98 bitrate=6874.9kbits/s speed=0.144x    frame=  366 fps=8.7 q=47.0 size=    5019kB time=00:00:06.06 bitrate=6784.1kbits/s speed=0.144x    frame=  373 fps=8.7 q=47.0 size=    5019kB time=00:00:06.20 bitrate=6631.0kbits/s speed=0.144x    frame=  379 fps=8.7 q=47.0 size=    5019kB time=00:00:06.32 bitrate=6505.1kbits/s speed=0.145x    frame=  383 fps=8.7 q=47.0 size=    5019kB time=00:00:06.40 bitrate=6423.8kbits/s speed=0.145x    frame=  388 fps=8.7 q=47.0 size=    5019kB time=00:00:06.50 bitrate=6325.0kbits/s speed=0.146x    frame=  393 fps=8.7 q=47.0 size=    5019kB time=00:00:06.60 bitrate=6229.2kbits/s speed=0.146x    frame=  397 fps=8.7 q=47.0 size=    5019kB time=00:00:06.68 bitrate=6154.6kbits/s speed=0.146x    frame=  404 fps=8.7 q=47.0 size=    5019kB time=00:00:06.82 bitrate=6028.2kbits/s speed=0.147x    frame=  407 fps=8.7 q=47.0 size=    5019kB time=00:00:06.88 bitrate=5975.7kbits/s speed=0.147x    frame=  413 fps=8.7 q=47.0 size=    5019kB time=00:00:07.00 bitrate=5873.3kbits/s speed=0.147x    frame=  418 fps=8.7 q=47.0 size=    5019kB time=00:00:07.10 bitrate=5790.5kbits/s speed=0.147x    frame=  422 fps=8.7 q=47.0 size=    5019kB time=00:00:07.18 bitrate=5726.0kbits/s speed=0.147x    frame=  426 fps=8.6 q=47.0 size=    5019kB time=00:00:07.26 bitrate=5662.9kbits/s speed=0.147x    frame=  433 fps=8.6 q=47.0 size=    5019kB time=00:00:07.40 bitrate=5555.8kbits/s speed=0.148x    frame=  439 fps=8.7 q=47.0 size=    5019kB time=00:00:07.52 bitrate=5467.2kbits/s speed=0.148x    frame=  442 fps=8.6 q=47.0 size=    5019kB time=00:00:07.58 bitrate=5423.9kbits/s speed=0.148x    frame=  447 fps=8.6 q=47.0 size=    5019kB time=00:00:07.68 bitrate=5353.3kbits/s speed=0.149x    frame=  453 fps=8.6 q=47.0 size=    5019kB time=00:00:07.80 bitrate=5270.9kbits/s speed=0.149x    frame=  457 fps=8.6 q=47.0 size=    5019kB time=00:00:07.88 bitrate=5217.4kbits/s speed=0.149x    frame=  464 fps=8.6 q=47.0 size=    5019kB time=00:00:08.02 bitrate=5126.4kbits/s speed=0.149x    frame=  469 fps=8.6 q=47.0 size=    5019kB time=00:00:08.12 bitrate=5063.2kbits/s speed=0.149x    frame=  473 fps=8.6 q=47.0 size=    5019kB time=00:00:08.20 bitrate=5013.9kbits/s speed=0.149x    frame=  480 fps=8.6 q=47.0 size=    5019kB time=00:00:08.34 bitrate=4929.7kbits/s speed=0.15x    frame=  483 fps=8.6 q=47.0 size=    5019kB time=00:00:08.40 bitrate=4894.5kbits/s speed=0.15x    frame=  489 fps=8.6 q=47.0 size=    5019kB time=00:00:08.52 bitrate=4825.6kbits/s speed=0.15x    frame=  496 fps=8.6 q=47.0 size=    5019kB time=00:00:08.66 bitrate=4747.6kbits/s speed=0.151x    frame=  500 fps=8.6 q=47.0 size=    5019kB time=00:00:08.74 bitrate=4704.1kbits/s speed=0.151x    frame=  500 fps=7.8 q=-1.0 Lsize=    9820kB time=00:00:09.94 bitrate=8092.5kbits/s speed=0.155x    
video:9816kB audio:0kB subtitle:0kB other streams:0kB global headers:0kB muxing overhead: 0.045068%
bench: utime=225.648s
bench: maxrss=2170084kB
[libx264 @ 0x3ed51c0] frame I:2     Avg QP:37.02  size:290118
[libx264 @ 0x3ed51c0] frame P:126   Avg QP:46.42  size: 38368
[libx264 @ 0x3ed51c0] frame B:372   Avg QP:49.04  size: 12463
[libx264 @ 0x3ed51c0] consecutive B-frames:  0.8%  0.0%  0.0% 99.2%
[libx264 @ 0x3ed51c0] mb I  I16..4: 28.8% 64.4%  6.8%
[libx264 @ 0x3ed51c0] mb P  I16..4:  3.5%  2.7%  0.0%  P16..4: 30.2%  2.9%  4.0%  0.0%  0.0%    skip:56.7%
[libx264 @ 0x3ed51c0] mb B  I16..4:  0.0%  0.1%  0.0%  B16..8: 32.4%  0.6%  0.0%  direct: 0.2%  skip:66.7%  L0:38.9% L1:60.8% BI: 0.3%
[libx264 @ 0x3ed51c0] final ratefactor: 39.20
[libx264 @ 0x3ed51c0] 8x8 transform intra:48.4% inter:92.8%
[libx264 @ 0x3ed51c0] direct mvs  spatial:98.9% temporal:1.1%
[libx264 @ 0x3ed51c0] coded y,uvDC,uvAC intra: 19.4% 43.8% 12.1% inter: 1.3% 4.5% 0.1%
[libx264 @ 0x3ed51c0] i16 v,h,dc,p: 39% 23%  7% 31%
[libx264 @ 0x3ed51c0] i8 v,h,dc,ddl,ddr,vr,hd,vl,hu:  8%  4% 13% 12% 15% 14% 13% 11% 10%
[libx264 @ 0x3ed51c0] i4 v,h,dc,ddl,ddr,vr,hd,vl,hu:  6%  3%  1% 14% 18% 15% 16% 12% 15%
[libx264 @ 0x3ed51c0] i8c dc,h,v,p: 59% 17% 15%  9%
[libx264 @ 0x3ed51c0] Weighted P-Frames: Y:1.6% UV:0.8%
[libx264 @ 0x3ed51c0] ref P L0: 68.2%  2.9% 17.6%  5.4%  5.8%  0.1%
[libx264 @ 0x3ed51c0] ref B L0: 92.5%  5.6%  1.4%  0.5%
[libx264 @ 0x3ed51c0] ref B L1: 98.1%  1.9%
[libx264 @ 0x3ed51c0] kb/s:8040.58
